<?xml version="1.0" encoding="UTF-8" standalone="no"?>
<!DOCTYPE svg PUBLIC "-//W3C//DTD SVG 1.1//EN"
 "http://www.w3.org/Graphics/SVG/1.1/DTD/svg11.dtd">
<!-- Generated by graphviz version 2.44.1 (20200629.0846)
 -->
<!-- Title: dependencies Pages: 1 -->
<svg width="629pt" height="284pt"
 viewBox="0.00 0.00 629.00 284.00" xmlns="http://www.w3.org/2000/svg" xmlns:xlink="http://www.w3.org/1999/xlink">
<g id="graph0" class="graph" transform="scale(1 1) rotate(0) translate(4 280)">
<title>dependencies</title>
<polygon fill="white" stroke="transparent" points="-4,4 -4,-280 625,-280 625,4 -4,4"/>
<text text-anchor="start" x="289.51" y="-42.4" font-family="sans-serif" font-weight="bold" font-size="14.00">Legend</text>
<polygon fill="#ffffb3" stroke="transparent" points="76.5,-10 76.5,-30 96.5,-30 96.5,-10 76.5,-10"/>
<text text-anchor="start" x="100.13" y="-15.4" font-family="sans-serif" font-size="14.00"> &#160;Declarations</text>
<polygon fill="#8dd3c7" stroke="transparent" points="189.5,-10 189.5,-30 209.5,-30 209.5,-10 189.5,-10"/>
<text text-anchor="start" x="213.23" y="-15.4" font-family="sans-serif" font-size="14.00"> &#160;Module</text>
<polygon fill="#80b1d3" stroke="transparent" points="275.5,-10 275.5,-30 295.5,-30 295.5,-10 275.5,-10"/>
<text text-anchor="start" x="299.28" y="-15.4" font-family="sans-serif" font-size="14.00"> &#160;Bootstrap</text>
<polygon fill="#fdb462" stroke="transparent" points="372.5,-10 372.5,-30 392.5,-30 392.5,-10 372.5,-10"/>
<text text-anchor="start" x="396.17" y="-15.4" font-family="sans-serif" font-size="14.00"> &#160;Providers</text>
<polygon fill="#fb8072" stroke="transparent" points="468.5,-10 468.5,-30 488.5,-30 488.5,-10 468.5,-10"/>
<text text-anchor="start" x="492.23" y="-15.4" font-family="sans-serif" font-size="14.00"> &#160;Exports</text>
<g id="clust1" class="cluster">
<title>cluster_SearchModule</title>
<polygon fill="none" stroke="black" stroke-dasharray="1,5" points="8,-70 8,-268 613,-268 613,-70 8,-70"/>
</g>
<g id="clust6" class="cluster">
<title>cluster_SearchModule_imports</title>
<polygon fill="none" stroke="black" points="447,-78 447,-130 605,-130 605,-78 447,-78"/>
</g>
<g id="clust2" class="cluster">
<title>cluster_SearchModule_declarations</title>
<polygon fill="none" stroke="black" points="16,-78 16,-130 439,-130 439,-78 16,-78"/>
</g>
<g id="clust7" class="cluster">
<title>cluster_SearchModule_exports</title>
<polygon fill="none" stroke="black" points="83,-208 83,-260 517,-260 517,-208 83,-208"/>
</g>
<!-- AccountComponent -->
<g id="node1" class="node">
<title>AccountComponent</title>
<polygon fill="#ffffb3" stroke="black" points="431.26,-122 302.74,-122 302.74,-86 431.26,-86 431.26,-122"/>
<text text-anchor="middle" x="367" y="-99.8" font-family="Times,serif" font-size="14.00">AccountComponent</text>
</g>
<!-- SearchModule -->
<g id="node4" class="node">
<title>SearchModule</title>
<polygon fill="#8dd3c7" stroke="black" points="348.64,-187 345.64,-191 324.64,-191 321.64,-187 251.36,-187 251.36,-151 348.64,-151 348.64,-187"/>
<text text-anchor="middle" x="300" y="-164.8" font-family="Times,serif" font-size="14.00">SearchModule</text>
</g>
<!-- AccountComponent&#45;&gt;SearchModule -->
<g id="edge1" class="edge">
<title>AccountComponent&#45;&gt;SearchModule</title>
<path fill="none" stroke="black" d="M325.72,-122.11C325.72,-122.11 325.72,-140.99 325.72,-140.99"/>
<polygon fill="black" stroke="black" points="322.22,-140.99 325.72,-150.99 329.22,-140.99 322.22,-140.99"/>
</g>
<!-- LoginComponent -->
<g id="node2" class="node">
<title>LoginComponent</title>
<polygon fill="#ffffb3" stroke="black" points="284.28,-122 169.72,-122 169.72,-86 284.28,-86 284.28,-122"/>
<text text-anchor="middle" x="227" y="-99.8" font-family="Times,serif" font-size="14.00">LoginComponent</text>
</g>
<!-- LoginComponent&#45;&gt;SearchModule -->
<g id="edge2" class="edge">
<title>LoginComponent&#45;&gt;SearchModule</title>
<path fill="none" stroke="black" d="M267.78,-122.11C267.78,-122.11 267.78,-140.99 267.78,-140.99"/>
<polygon fill="black" stroke="black" points="264.28,-140.99 267.78,-150.99 271.28,-140.99 264.28,-140.99"/>
</g>
<!-- RegisterComponent -->
<g id="node3" class="node">
<title>RegisterComponent</title>
<polygon fill="#ffffb3" stroke="black" points="151.98,-122 24.02,-122 24.02,-86 151.98,-86 151.98,-122"/>
<text text-anchor="middle" x="88" y="-99.8" font-family="Times,serif" font-size="14.00">RegisterComponent</text>
</g>
<!-- RegisterComponent&#45;&gt;SearchModule -->
<g id="edge3" class="edge">
<title>RegisterComponent&#45;&gt;SearchModule</title>
<path fill="none" stroke="black" d="M121.62,-122.02C121.62,-139.37 121.62,-163 121.62,-163 121.62,-163 241.26,-163 241.26,-163"/>
<polygon fill="black" stroke="black" points="241.26,-166.5 251.26,-163 241.26,-159.5 241.26,-166.5"/>
</g>
<!-- AccountComponent  -->
<g id="node6" class="node">
<title>AccountComponent </title>
<polygon fill="#fb8072" stroke="black" points="509.26,-252 376.74,-252 376.74,-216 509.26,-216 509.26,-252"/>
<text text-anchor="middle" x="443" y="-229.8" font-family="Times,serif" font-size="14.00">AccountComponent </text>
</g>
<!-- SearchModule&#45;&gt;AccountComponent  -->
<g id="edge5" class="edge">
<title>SearchModule&#45;&gt;AccountComponent </title>
<path fill="none" stroke="black" stroke-dasharray="5,2" d="M348.71,-175C375.81,-175 404.12,-175 404.12,-175 404.12,-175 404.12,-205.98 404.12,-205.98"/>
<polygon fill="black" stroke="black" points="400.63,-205.98 404.12,-215.98 407.63,-205.98 400.63,-205.98"/>
</g>
<!-- LoginComponent  -->
<g id="node7" class="node">
<title>LoginComponent </title>
<polygon fill="#fb8072" stroke="black" points="359.28,-252 240.72,-252 240.72,-216 359.28,-216 359.28,-252"/>
<text text-anchor="middle" x="300" y="-229.8" font-family="Times,serif" font-size="14.00">LoginComponent </text>
</g>
<!-- SearchModule&#45;&gt;LoginComponent  -->
<g id="edge6" class="edge">
<title>SearchModule&#45;&gt;LoginComponent </title>
<path fill="none" stroke="black" stroke-dasharray="5,2" d="M300,-187.11C300,-187.11 300,-205.99 300,-205.99"/>
<polygon fill="black" stroke="black" points="296.5,-205.99 300,-215.99 303.5,-205.99 296.5,-205.99"/>
</g>
<!-- RegisterComponent  -->
<g id="node8" class="node">
<title>RegisterComponent </title>
<polygon fill="#fb8072" stroke="black" points="222.99,-252 91.01,-252 91.01,-216 222.99,-216 222.99,-252"/>
<text text-anchor="middle" x="157" y="-229.8" font-family="Times,serif" font-size="14.00">RegisterComponent </text>
</g>
<!-- SearchModule&#45;&gt;RegisterComponent  -->
<g id="edge7" class="edge">
<title>SearchModule&#45;&gt;RegisterComponent </title>
<path fill="none" stroke="black" stroke-dasharray="5,2" d="M251.13,-175C224.2,-175 196.18,-175 196.18,-175 196.18,-175 196.18,-205.98 196.18,-205.98"/>
<polygon fill="black" stroke="black" points="192.68,-205.98 196.18,-215.98 199.68,-205.98 192.68,-205.98"/>
</g>
<!-- SearchRoutingModule -->
<g id="node5" class="node">
<title>SearchRoutingModule</title>
<polygon fill="#8dd3c7" stroke="black" points="597.25,-122 594.25,-126 573.25,-126 570.25,-122 454.75,-122 454.75,-86 597.25,-86 597.25,-122"/>
<text text-anchor="middle" x="526" y="-99.8" font-family="Times,serif" font-size="14.00">SearchRoutingModule</text>
</g>
<!-- SearchRoutingModule&#45;&gt;SearchModule -->
<g id="edge4" class="edge">
<title>SearchRoutingModule&#45;&gt;SearchModule</title>
<path fill="none" stroke="black" d="M481.88,-122.02C481.88,-139.37 481.88,-163 481.88,-163 481.88,-163 358.74,-163 358.74,-163"/>
<polygon fill="black" stroke="black" points="358.74,-159.5 348.74,-163 358.74,-166.5 358.74,-159.5"/>
</g>
</g>
</svg>
