<?xml version="1.0" encoding="UTF-8" standalone="no"?>
<!DOCTYPE svg PUBLIC "-//W3C//DTD SVG 1.1//EN"
 "http://www.w3.org/Graphics/SVG/1.1/DTD/svg11.dtd">
<!-- Generated by graphviz version 2.44.1 (20200629.0846)
 -->
<!-- Title: dependencies Pages: 1 -->
<svg width="629pt" height="284pt"
 viewBox="0.00 0.00 629.00 284.00" xmlns="http://www.w3.org/2000/svg" xmlns:xlink="http://www.w3.org/1999/xlink">
<g id="graph0" class="graph" transform="scale(1 1) rotate(0) translate(4 280)">
<title>dependencies</title>
<polygon fill="white" stroke="transparent" points="-4,4 -4,-280 625,-280 625,4 -4,4"/>
<text text-anchor="start" x="289.51" y="-42.4" font-family="sans-serif" font-weight="bold" font-size="14.00">Legend</text>
<polygon fill="#ffffb3" stroke="transparent" points="76.5,-10 76.5,-30 96.5,-30 96.5,-10 76.5,-10"/>
<text text-anchor="start" x="100.13" y="-15.4" font-family="sans-serif" font-size="14.00"> &#160;Declarations</text>
<polygon fill="#8dd3c7" stroke="transparent" points="189.5,-10 189.5,-30 209.5,-30 209.5,-10 189.5,-10"/>
<text text-anchor="start" x="213.23" y="-15.4" font-family="sans-serif" font-size="14.00"> &#160;Module</text>
<polygon fill="#80b1d3" stroke="transparent" points="275.5,-10 275.5,-30 295.5,-30 295.5,-10 275.5,-10"/>
<text text-anchor="start" x="299.28" y="-15.4" font-family="sans-serif" font-size="14.00"> &#160;Bootstrap</text>
<polygon fill="#fdb462" stroke="transparent" points="372.5,-10 372.5,-30 392.5,-30 392.5,-10 372.5,-10"/>
<text text-anchor="start" x="396.17" y="-15.4" font-family="sans-serif" font-size="14.00"> &#160;Providers</text>
<polygon fill="#fb8072" stroke="transparent" points="468.5,-10 468.5,-30 488.5,-30 488.5,-10 468.5,-10"/>
<text text-anchor="start" x="492.23" y="-15.4" font-family="sans-serif" font-size="14.00"> &#160;Exports</text>
<g id="clust1" class="cluster">
<title>cluster_SearchModule</title>
<polygon fill="none" stroke="black" stroke-dasharray="1,5" points="8,-70 8,-268 613,-268 613,-70 8,-70"/>
</g>
<g id="clust2" class="cluster">
<title>cluster_SearchModule_declarations</title>
<polygon fill="none" stroke="black" points="182,-78 182,-130 605,-130 605,-78 182,-78"/>
</g>
<g id="clust6" class="cluster">
<title>cluster_SearchModule_imports</title>
<polygon fill="none" stroke="black" points="16,-78 16,-130 174,-130 174,-78 16,-78"/>
</g>
<g id="clust7" class="cluster">
<title>cluster_SearchModule_exports</title>
<polygon fill="none" stroke="black" points="104,-208 104,-260 538,-260 538,-208 104,-208"/>
</g>
<!-- AccountComponent -->
<g id="node1" class="node">
<title>AccountComponent</title>
<polygon fill="#ffffb3" stroke="black" points="597.26,-122 468.74,-122 468.74,-86 597.26,-86 597.26,-122"/>
<text text-anchor="middle" x="533" y="-99.8" font-family="Times,serif" font-size="14.00">AccountComponent</text>
</g>
<!-- SearchModule -->
<g id="node4" class="node">
<title>SearchModule</title>
<polygon fill="#8dd3c7" stroke="black" points="369.64,-187 366.64,-191 345.64,-191 342.64,-187 272.36,-187 272.36,-151 369.64,-151 369.64,-187"/>
<text text-anchor="middle" x="321" y="-164.8" font-family="Times,serif" font-size="14.00">SearchModule</text>
</g>
<!-- AccountComponent&#45;&gt;SearchModule -->
<g id="edge1" class="edge">
<title>AccountComponent&#45;&gt;SearchModule</title>
<path fill="none" stroke="black" d="M499.38,-122.02C499.38,-139.37 499.38,-163 499.38,-163 499.38,-163 379.74,-163 379.74,-163"/>
<polygon fill="black" stroke="black" points="379.74,-159.5 369.74,-163 379.74,-166.5 379.74,-159.5"/>
</g>
<!-- LoginComponent -->
<g id="node2" class="node">
<title>LoginComponent</title>
<polygon fill="#ffffb3" stroke="black" points="450.28,-122 335.72,-122 335.72,-86 450.28,-86 450.28,-122"/>
<text text-anchor="middle" x="393" y="-99.8" font-family="Times,serif" font-size="14.00">LoginComponent</text>
</g>
<!-- LoginComponent&#45;&gt;SearchModule -->
<g id="edge2" class="edge">
<title>LoginComponent&#45;&gt;SearchModule</title>
<path fill="none" stroke="black" d="M352.72,-122.11C352.72,-122.11 352.72,-140.99 352.72,-140.99"/>
<polygon fill="black" stroke="black" points="349.22,-140.99 352.72,-150.99 356.22,-140.99 349.22,-140.99"/>
</g>
<!-- RegisterComponent -->
<g id="node3" class="node">
<title>RegisterComponent</title>
<polygon fill="#ffffb3" stroke="black" points="317.98,-122 190.02,-122 190.02,-86 317.98,-86 317.98,-122"/>
<text text-anchor="middle" x="254" y="-99.8" font-family="Times,serif" font-size="14.00">RegisterComponent</text>
</g>
<!-- RegisterComponent&#45;&gt;SearchModule -->
<g id="edge3" class="edge">
<title>RegisterComponent&#45;&gt;SearchModule</title>
<path fill="none" stroke="black" d="M295.09,-122.11C295.09,-122.11 295.09,-140.99 295.09,-140.99"/>
<polygon fill="black" stroke="black" points="291.59,-140.99 295.09,-150.99 298.59,-140.99 291.59,-140.99"/>
</g>
<!-- AccountComponent  -->
<g id="node6" class="node">
<title>AccountComponent </title>
<polygon fill="#fb8072" stroke="black" points="530.26,-252 397.74,-252 397.74,-216 530.26,-216 530.26,-252"/>
<text text-anchor="middle" x="464" y="-229.8" font-family="Times,serif" font-size="14.00">AccountComponent </text>
</g>
<!-- SearchModule&#45;&gt;AccountComponent  -->
<g id="edge5" class="edge">
<title>SearchModule&#45;&gt;AccountComponent </title>
<path fill="none" stroke="black" stroke-dasharray="5,2" d="M369.85,-175C396.5,-175 424.13,-175 424.13,-175 424.13,-175 424.13,-205.98 424.13,-205.98"/>
<polygon fill="black" stroke="black" points="420.63,-205.98 424.13,-215.98 427.63,-205.98 420.63,-205.98"/>
</g>
<!-- LoginComponent  -->
<g id="node7" class="node">
<title>LoginComponent </title>
<polygon fill="#fb8072" stroke="black" points="380.28,-252 261.72,-252 261.72,-216 380.28,-216 380.28,-252"/>
<text text-anchor="middle" x="321" y="-229.8" font-family="Times,serif" font-size="14.00">LoginComponent </text>
</g>
<!-- SearchModule&#45;&gt;LoginComponent  -->
<g id="edge6" class="edge">
<title>SearchModule&#45;&gt;LoginComponent </title>
<path fill="none" stroke="black" stroke-dasharray="5,2" d="M321,-187.11C321,-187.11 321,-205.99 321,-205.99"/>
<polygon fill="black" stroke="black" points="317.5,-205.99 321,-215.99 324.5,-205.99 317.5,-205.99"/>
</g>
<!-- RegisterComponent  -->
<g id="node8" class="node">
<title>RegisterComponent </title>
<polygon fill="#fb8072" stroke="black" points="243.99,-252 112.01,-252 112.01,-216 243.99,-216 243.99,-252"/>
<text text-anchor="middle" x="178" y="-229.8" font-family="Times,serif" font-size="14.00">RegisterComponent </text>
</g>
<!-- SearchModule&#45;&gt;RegisterComponent  -->
<g id="edge7" class="edge">
<title>SearchModule&#45;&gt;RegisterComponent </title>
<path fill="none" stroke="black" stroke-dasharray="5,2" d="M272.29,-175C245.19,-175 216.88,-175 216.88,-175 216.88,-175 216.88,-205.98 216.88,-205.98"/>
<polygon fill="black" stroke="black" points="213.38,-205.98 216.88,-215.98 220.38,-205.98 213.38,-205.98"/>
</g>
<!-- SearchRoutingModule -->
<g id="node5" class="node">
<title>SearchRoutingModule</title>
<polygon fill="#8dd3c7" stroke="black" points="166.25,-122 163.25,-126 142.25,-126 139.25,-122 23.75,-122 23.75,-86 166.25,-86 166.25,-122"/>
<text text-anchor="middle" x="95" y="-99.8" font-family="Times,serif" font-size="14.00">SearchRoutingModule</text>
</g>
<!-- SearchRoutingModule&#45;&gt;SearchModule -->
<g id="edge4" class="edge">
<title>SearchRoutingModule&#45;&gt;SearchModule</title>
<path fill="none" stroke="black" d="M139.32,-122.02C139.32,-139.37 139.32,-163 139.32,-163 139.32,-163 262.31,-163 262.31,-163"/>
<polygon fill="black" stroke="black" points="262.31,-166.5 272.31,-163 262.31,-159.5 262.31,-166.5"/>
</g>
</g>
</svg>
