<?xml version="1.0" encoding="UTF-8" standalone="no"?>
<!DOCTYPE svg PUBLIC "-//W3C//DTD SVG 1.1//EN"
 "http://www.w3.org/Graphics/SVG/1.1/DTD/svg11.dtd">
<!-- Generated by graphviz version 2.44.1 (20200629.0846)
 -->
<!-- Title: dependencies Pages: 1 -->
<svg width="639pt" height="284pt"
 viewBox="0.00 0.00 639.00 284.00" xmlns="http://www.w3.org/2000/svg" xmlns:xlink="http://www.w3.org/1999/xlink">
<g id="graph0" class="graph" transform="scale(1 1) rotate(0) translate(4 280)">
<title>dependencies</title>
<polygon fill="white" stroke="transparent" points="-4,4 -4,-280 635,-280 635,4 -4,4"/>
<text text-anchor="start" x="294.51" y="-42.4" font-family="sans-serif" font-weight="bold" font-size="14.00">Legend</text>
<polygon fill="#ffffb3" stroke="transparent" points="81.5,-10 81.5,-30 101.5,-30 101.5,-10 81.5,-10"/>
<text text-anchor="start" x="105.13" y="-15.4" font-family="sans-serif" font-size="14.00"> &#160;Declarations</text>
<polygon fill="#8dd3c7" stroke="transparent" points="194.5,-10 194.5,-30 214.5,-30 214.5,-10 194.5,-10"/>
<text text-anchor="start" x="218.23" y="-15.4" font-family="sans-serif" font-size="14.00"> &#160;Module</text>
<polygon fill="#80b1d3" stroke="transparent" points="280.5,-10 280.5,-30 300.5,-30 300.5,-10 280.5,-10"/>
<text text-anchor="start" x="304.28" y="-15.4" font-family="sans-serif" font-size="14.00"> &#160;Bootstrap</text>
<polygon fill="#fdb462" stroke="transparent" points="377.5,-10 377.5,-30 397.5,-30 397.5,-10 377.5,-10"/>
<text text-anchor="start" x="401.17" y="-15.4" font-family="sans-serif" font-size="14.00"> &#160;Providers</text>
<polygon fill="#fb8072" stroke="transparent" points="473.5,-10 473.5,-30 493.5,-30 493.5,-10 473.5,-10"/>
<text text-anchor="start" x="497.23" y="-15.4" font-family="sans-serif" font-size="14.00"> &#160;Exports</text>
<g id="clust1" class="cluster">
<title>cluster_AccountModule</title>
<polygon fill="none" stroke="black" stroke-dasharray="1,5" points="8,-70 8,-268 623,-268 623,-70 8,-70"/>
</g>
<g id="clust7" class="cluster">
<title>cluster_AccountModule_exports</title>
<polygon fill="none" stroke="black" points="83,-208 83,-260 517,-260 517,-208 83,-208"/>
</g>
<g id="clust6" class="cluster">
<title>cluster_AccountModule_imports</title>
<polygon fill="none" stroke="black" points="447,-78 447,-130 615,-130 615,-78 447,-78"/>
</g>
<g id="clust2" class="cluster">
<title>cluster_AccountModule_declarations</title>
<polygon fill="none" stroke="black" points="16,-78 16,-130 439,-130 439,-78 16,-78"/>
</g>
<!-- AccountComponent -->
<g id="node1" class="node">
<title>AccountComponent</title>
<polygon fill="#ffffb3" stroke="black" points="431.26,-122 302.74,-122 302.74,-86 431.26,-86 431.26,-122"/>
<text text-anchor="middle" x="367" y="-99.8" font-family="Times,serif" font-size="14.00">AccountComponent</text>
</g>
<!-- AccountModule -->
<g id="node4" class="node">
<title>AccountModule</title>
<polygon fill="#8dd3c7" stroke="black" points="353.48,-187 350.48,-191 329.48,-191 326.48,-187 246.52,-187 246.52,-151 353.48,-151 353.48,-187"/>
<text text-anchor="middle" x="300" y="-164.8" font-family="Times,serif" font-size="14.00">AccountModule</text>
</g>
<!-- AccountComponent&#45;&gt;AccountModule -->
<g id="edge1" class="edge">
<title>AccountComponent&#45;&gt;AccountModule</title>
<path fill="none" stroke="black" d="M328.05,-122.11C328.05,-122.11 328.05,-140.99 328.05,-140.99"/>
<polygon fill="black" stroke="black" points="324.55,-140.99 328.05,-150.99 331.55,-140.99 324.55,-140.99"/>
</g>
<!-- LoginComponent -->
<g id="node2" class="node">
<title>LoginComponent</title>
<polygon fill="#ffffb3" stroke="black" points="284.28,-122 169.72,-122 169.72,-86 284.28,-86 284.28,-122"/>
<text text-anchor="middle" x="227" y="-99.8" font-family="Times,serif" font-size="14.00">LoginComponent</text>
</g>
<!-- LoginComponent&#45;&gt;AccountModule -->
<g id="edge2" class="edge">
<title>LoginComponent&#45;&gt;AccountModule</title>
<path fill="none" stroke="black" d="M265.45,-122.11C265.45,-122.11 265.45,-140.99 265.45,-140.99"/>
<polygon fill="black" stroke="black" points="261.95,-140.99 265.45,-150.99 268.95,-140.99 261.95,-140.99"/>
</g>
<!-- RegisterComponent -->
<g id="node3" class="node">
<title>RegisterComponent</title>
<polygon fill="#ffffb3" stroke="black" points="151.98,-122 24.02,-122 24.02,-86 151.98,-86 151.98,-122"/>
<text text-anchor="middle" x="88" y="-99.8" font-family="Times,serif" font-size="14.00">RegisterComponent</text>
</g>
<!-- RegisterComponent&#45;&gt;AccountModule -->
<g id="edge3" class="edge">
<title>RegisterComponent&#45;&gt;AccountModule</title>
<path fill="none" stroke="black" d="M121.62,-122.02C121.62,-139.37 121.62,-163 121.62,-163 121.62,-163 236.48,-163 236.48,-163"/>
<polygon fill="black" stroke="black" points="236.48,-166.5 246.48,-163 236.48,-159.5 236.48,-166.5"/>
</g>
<!-- AccountComponent  -->
<g id="node6" class="node">
<title>AccountComponent </title>
<polygon fill="#fb8072" stroke="black" points="509.26,-252 376.74,-252 376.74,-216 509.26,-216 509.26,-252"/>
<text text-anchor="middle" x="443" y="-229.8" font-family="Times,serif" font-size="14.00">AccountComponent </text>
</g>
<!-- AccountModule&#45;&gt;AccountComponent  -->
<g id="edge5" class="edge">
<title>AccountModule&#45;&gt;AccountComponent </title>
<path fill="none" stroke="black" stroke-dasharray="5,2" d="M353.59,-175C379.1,-175 404.12,-175 404.12,-175 404.12,-175 404.12,-205.98 404.12,-205.98"/>
<polygon fill="black" stroke="black" points="400.63,-205.98 404.12,-215.98 407.63,-205.98 400.63,-205.98"/>
</g>
<!-- LoginComponent  -->
<g id="node7" class="node">
<title>LoginComponent </title>
<polygon fill="#fb8072" stroke="black" points="359.28,-252 240.72,-252 240.72,-216 359.28,-216 359.28,-252"/>
<text text-anchor="middle" x="300" y="-229.8" font-family="Times,serif" font-size="14.00">LoginComponent </text>
</g>
<!-- AccountModule&#45;&gt;LoginComponent  -->
<g id="edge6" class="edge">
<title>AccountModule&#45;&gt;LoginComponent </title>
<path fill="none" stroke="black" stroke-dasharray="5,2" d="M300,-187.11C300,-187.11 300,-205.99 300,-205.99"/>
<polygon fill="black" stroke="black" points="296.5,-205.99 300,-215.99 303.5,-205.99 296.5,-205.99"/>
</g>
<!-- RegisterComponent  -->
<g id="node8" class="node">
<title>RegisterComponent </title>
<polygon fill="#fb8072" stroke="black" points="222.99,-252 91.01,-252 91.01,-216 222.99,-216 222.99,-252"/>
<text text-anchor="middle" x="157" y="-229.8" font-family="Times,serif" font-size="14.00">RegisterComponent </text>
</g>
<!-- AccountModule&#45;&gt;RegisterComponent  -->
<g id="edge7" class="edge">
<title>AccountModule&#45;&gt;RegisterComponent </title>
<path fill="none" stroke="black" stroke-dasharray="5,2" d="M246.26,-175C220.93,-175 196.18,-175 196.18,-175 196.18,-175 196.18,-205.98 196.18,-205.98"/>
<polygon fill="black" stroke="black" points="192.68,-205.98 196.18,-215.98 199.68,-205.98 192.68,-205.98"/>
</g>
<!-- AccountRoutingModule -->
<g id="node5" class="node">
<title>AccountRoutingModule</title>
<polygon fill="#8dd3c7" stroke="black" points="607.09,-122 604.09,-126 583.09,-126 580.09,-122 454.91,-122 454.91,-86 607.09,-86 607.09,-122"/>
<text text-anchor="middle" x="531" y="-99.8" font-family="Times,serif" font-size="14.00">AccountRoutingModule</text>
</g>
<!-- AccountRoutingModule&#45;&gt;AccountModule -->
<g id="edge4" class="edge">
<title>AccountRoutingModule&#45;&gt;AccountModule</title>
<path fill="none" stroke="black" d="M482.04,-122.02C482.04,-139.37 482.04,-163 482.04,-163 482.04,-163 363.63,-163 363.63,-163"/>
<polygon fill="black" stroke="black" points="363.63,-159.5 353.63,-163 363.63,-166.5 363.63,-159.5"/>
</g>
</g>
</svg>
