<?xml version="1.0" encoding="UTF-8" standalone="no"?>
<!DOCTYPE svg PUBLIC "-//W3C//DTD SVG 1.1//EN"
 "http://www.w3.org/Graphics/SVG/1.1/DTD/svg11.dtd">
<!-- Generated by graphviz version 2.44.1 (20200629.0846)
 -->
<!-- Title: dependencies Pages: 1 -->
<svg width="1214pt" height="284pt"
 viewBox="0.00 0.00 1214.00 284.00" xmlns="http://www.w3.org/2000/svg" xmlns:xlink="http://www.w3.org/1999/xlink">
<g id="graph0" class="graph" transform="scale(1 1) rotate(0) translate(4 280)">
<title>dependencies</title>
<polygon fill="white" stroke="transparent" points="-4,4 -4,-280 1210,-280 1210,4 -4,4"/>
<text text-anchor="start" x="582.01" y="-42.4" font-family="sans-serif" font-weight="bold" font-size="14.00">Legend</text>
<polygon fill="#ffffb3" stroke="transparent" points="369,-10 369,-30 389,-30 389,-10 369,-10"/>
<text text-anchor="start" x="392.63" y="-15.4" font-family="sans-serif" font-size="14.00"> &#160;Declarations</text>
<polygon fill="#8dd3c7" stroke="transparent" points="482,-10 482,-30 502,-30 502,-10 482,-10"/>
<text text-anchor="start" x="505.73" y="-15.4" font-family="sans-serif" font-size="14.00"> &#160;Module</text>
<polygon fill="#80b1d3" stroke="transparent" points="568,-10 568,-30 588,-30 588,-10 568,-10"/>
<text text-anchor="start" x="591.78" y="-15.4" font-family="sans-serif" font-size="14.00"> &#160;Bootstrap</text>
<polygon fill="#fdb462" stroke="transparent" points="665,-10 665,-30 685,-30 685,-10 665,-10"/>
<text text-anchor="start" x="688.67" y="-15.4" font-family="sans-serif" font-size="14.00"> &#160;Providers</text>
<polygon fill="#fb8072" stroke="transparent" points="761,-10 761,-30 781,-30 781,-10 761,-10"/>
<text text-anchor="start" x="784.73" y="-15.4" font-family="sans-serif" font-size="14.00"> &#160;Exports</text>
<g id="clust1" class="cluster">
<title>cluster_AppModule</title>
<polygon fill="none" stroke="black" stroke-dasharray="1,5" points="8,-70 8,-268 690,-268 690,-70 8,-70"/>
</g>
<g id="clust2" class="cluster">
<title>cluster_AppModule_declarations</title>
<polygon fill="none" stroke="black" points="560,-78 560,-130 682,-130 682,-78 560,-78"/>
</g>
<g id="clust4" class="cluster">
<title>cluster_AppModule_imports</title>
<polygon fill="none" stroke="black" points="408,-78 408,-130 552,-130 552,-78 408,-78"/>
</g>
<g id="clust6" class="cluster">
<title>cluster_AppModule_bootstrap</title>
<polygon fill="none" stroke="black" points="331,-208 331,-260 455,-260 455,-208 331,-208"/>
</g>
<g id="clust7" class="cluster">
<title>cluster_AppModule_providers</title>
<polygon fill="none" stroke="black" points="16,-78 16,-130 400,-130 400,-78 16,-78"/>
</g>
<g id="clust14" class="cluster">
<title>cluster_ProfileModule</title>
<polygon fill="none" stroke="black" stroke-dasharray="1,5" points="698,-70 698,-268 1016,-268 1016,-70 698,-70"/>
</g>
<g id="clust15" class="cluster">
<title>cluster_ProfileModule_declarations</title>
<polygon fill="none" stroke="black" points="872,-78 872,-130 1008,-130 1008,-78 872,-78"/>
</g>
<g id="clust17" class="cluster">
<title>cluster_ProfileModule_imports</title>
<polygon fill="none" stroke="black" points="706,-78 706,-130 864,-130 864,-78 706,-78"/>
</g>
<g id="clust18" class="cluster">
<title>cluster_ProfileModule_exports</title>
<polygon fill="none" stroke="black" points="870,-208 870,-260 1008,-260 1008,-208 870,-208"/>
</g>
<g id="clust27" class="cluster">
<title>cluster_SearchModule</title>
<polygon fill="none" stroke="black" stroke-dasharray="1,5" points="1024,-70 1024,-195 1198,-195 1198,-70 1024,-70"/>
</g>
<g id="clust30" class="cluster">
<title>cluster_SearchModule_imports</title>
<polygon fill="none" stroke="black" points="1032,-78 1032,-130 1190,-130 1190,-78 1032,-78"/>
</g>
<!-- AppComponent -->
<g id="node1" class="node">
<title>AppComponent</title>
<polygon fill="#ffffb3" stroke="black" points="673.94,-122 568.06,-122 568.06,-86 673.94,-86 673.94,-122"/>
<text text-anchor="middle" x="621" y="-99.8" font-family="Times,serif" font-size="14.00">AppComponent</text>
</g>
<!-- AppModule -->
<g id="node2" class="node">
<title>AppModule</title>
<polygon fill="#8dd3c7" stroke="black" points="434.66,-187 431.66,-191 410.66,-191 407.66,-187 351.34,-187 351.34,-151 434.66,-151 434.66,-187"/>
<text text-anchor="middle" x="393" y="-164.8" font-family="Times,serif" font-size="14.00">AppModule</text>
</g>
<!-- AppComponent&#45;&gt;AppModule -->
<g id="edge1" class="edge">
<title>AppComponent&#45;&gt;AppModule</title>
<path fill="none" stroke="black" d="M621,-122.02C621,-139.37 621,-163 621,-163 621,-163 444.82,-163 444.82,-163"/>
<polygon fill="black" stroke="black" points="444.82,-159.5 434.82,-163 444.82,-166.5 444.82,-159.5"/>
</g>
<!-- AppComponent  -->
<g id="node4" class="node">
<title>AppComponent </title>
<polygon fill="#80b1d3" stroke="black" points="447.44,-252 338.56,-252 338.56,-216 447.44,-216 447.44,-252"/>
<text text-anchor="middle" x="393" y="-229.8" font-family="Times,serif" font-size="14.00">AppComponent </text>
</g>
<!-- AppModule&#45;&gt;AppComponent  -->
<g id="edge3" class="edge">
<title>AppModule&#45;&gt;AppComponent </title>
<path fill="none" stroke="black" stroke-dasharray="1,5" d="M393,-187.11C393,-187.11 393,-205.99 393,-205.99"/>
<polygon fill="black" stroke="black" points="389.5,-205.99 393,-215.99 396.5,-205.99 389.5,-205.99"/>
</g>
<!-- AppRoutingModule -->
<g id="node3" class="node">
<title>AppRoutingModule</title>
<polygon fill="#8dd3c7" stroke="black" points="544.27,-122 541.27,-126 520.27,-126 517.27,-122 415.73,-122 415.73,-86 544.27,-86 544.27,-122"/>
<text text-anchor="middle" x="480" y="-99.8" font-family="Times,serif" font-size="14.00">AppRoutingModule</text>
</g>
<!-- AppRoutingModule&#45;&gt;AppModule -->
<g id="edge2" class="edge">
<title>AppRoutingModule&#45;&gt;AppModule</title>
<path fill="none" stroke="black" d="M425.22,-122.11C425.22,-122.11 425.22,-140.99 425.22,-140.99"/>
<polygon fill="black" stroke="black" points="421.72,-140.99 425.22,-150.99 428.72,-140.99 421.72,-140.99"/>
</g>
<!-- RequestInterceptor -->
<g id="node5" class="node">
<title>RequestInterceptor</title>
<ellipse fill="#fdb462" stroke="black" cx="307" cy="-104" rx="84.51" ry="18"/>
<text text-anchor="middle" x="307" y="-99.8" font-family="Times,serif" font-size="14.00">RequestInterceptor</text>
</g>
<!-- RequestInterceptor&#45;&gt;AppModule -->
<g id="edge4" class="edge">
<title>RequestInterceptor&#45;&gt;AppModule</title>
<path fill="none" stroke="black" d="M371.34,-115.92C371.34,-115.92 371.34,-140.77 371.34,-140.77"/>
<polygon fill="black" stroke="black" points="367.84,-140.77 371.34,-150.77 374.84,-140.77 367.84,-140.77"/>
</g>
<!-- ResponseInterceptor -->
<g id="node6" class="node">
<title>ResponseInterceptor</title>
<ellipse fill="#fdb462" stroke="black" cx="114" cy="-104" rx="90.31" ry="18"/>
<text text-anchor="middle" x="114" y="-99.8" font-family="Times,serif" font-size="14.00">ResponseInterceptor</text>
</g>
<!-- ResponseInterceptor&#45;&gt;AppModule -->
<g id="edge5" class="edge">
<title>ResponseInterceptor&#45;&gt;AppModule</title>
<path fill="none" stroke="black" d="M114,-122.11C114,-141.34 114,-169 114,-169 114,-169 341.23,-169 341.23,-169"/>
<polygon fill="black" stroke="black" points="341.23,-172.5 351.23,-169 341.23,-165.5 341.23,-172.5"/>
</g>
<!-- SearchComponent -->
<g id="node7" class="node">
<title>SearchComponent</title>
<polygon fill="#ffffb3" stroke="black" points="999.92,-122 880.08,-122 880.08,-86 999.92,-86 999.92,-122"/>
<text text-anchor="middle" x="940" y="-99.8" font-family="Times,serif" font-size="14.00">SearchComponent</text>
</g>
<!-- ProfileModule -->
<g id="node8" class="node">
<title>ProfileModule</title>
<polygon fill="#8dd3c7" stroke="black" points="987.65,-187 984.65,-191 963.65,-191 960.65,-187 890.35,-187 890.35,-151 987.65,-151 987.65,-187"/>
<text text-anchor="middle" x="939" y="-164.8" font-family="Times,serif" font-size="14.00">ProfileModule</text>
</g>
<!-- SearchComponent&#45;&gt;ProfileModule -->
<g id="edge6" class="edge">
<title>SearchComponent&#45;&gt;ProfileModule</title>
<path fill="none" stroke="black" d="M939,-122.11C939,-122.11 939,-140.99 939,-140.99"/>
<polygon fill="black" stroke="black" points="935.5,-140.99 939,-150.99 942.5,-140.99 935.5,-140.99"/>
</g>
<!-- SearchModule -->
<g id="node11" class="node">
<title>SearchModule</title>
<polygon fill="#8dd3c7" stroke="black" points="1129.64,-187 1126.64,-191 1105.64,-191 1102.64,-187 1032.36,-187 1032.36,-151 1129.64,-151 1129.64,-187"/>
<text text-anchor="middle" x="1081" y="-164.8" font-family="Times,serif" font-size="14.00">SearchModule</text>
</g>
<!-- SearchComponent&#45;&gt;SearchModule -->
<g id="edge9" class="edge">
<title>SearchComponent&#45;&gt;SearchModule</title>
<path fill="none" stroke="black" d="M999.92,-104C1019.3,-104 1035.9,-104 1035.9,-104 1035.9,-104 1035.9,-140.89 1035.9,-140.89"/>
<polygon fill="black" stroke="black" points="1032.4,-140.89 1035.9,-150.89 1039.4,-140.89 1032.4,-140.89"/>
</g>
<!-- SearchComponent  -->
<g id="node10" class="node">
<title>SearchComponent </title>
<polygon fill="#fb8072" stroke="black" points="1000.42,-252 877.58,-252 877.58,-216 1000.42,-216 1000.42,-252"/>
<text text-anchor="middle" x="939" y="-229.8" font-family="Times,serif" font-size="14.00">SearchComponent </text>
</g>
<!-- ProfileModule&#45;&gt;SearchComponent  -->
<g id="edge8" class="edge">
<title>ProfileModule&#45;&gt;SearchComponent </title>
<path fill="none" stroke="black" stroke-dasharray="5,2" d="M939,-187.11C939,-187.11 939,-205.99 939,-205.99"/>
<polygon fill="black" stroke="black" points="935.5,-205.99 939,-215.99 942.5,-205.99 935.5,-205.99"/>
</g>
<!-- ProfileRoutingModule -->
<g id="node9" class="node">
<title>ProfileRoutingModule</title>
<polygon fill="#8dd3c7" stroke="black" points="856.27,-122 853.27,-126 832.27,-126 829.27,-122 713.73,-122 713.73,-86 856.27,-86 856.27,-122"/>
<text text-anchor="middle" x="785" y="-99.8" font-family="Times,serif" font-size="14.00">ProfileRoutingModule</text>
</g>
<!-- ProfileRoutingModule&#45;&gt;ProfileModule -->
<g id="edge7" class="edge">
<title>ProfileRoutingModule&#45;&gt;ProfileModule</title>
<path fill="none" stroke="black" d="M785,-122.28C785,-143.32 785,-175 785,-175 785,-175 880.27,-175 880.27,-175"/>
<polygon fill="black" stroke="black" points="880.27,-178.5 890.27,-175 880.27,-171.5 880.27,-178.5"/>
</g>
<!-- SearchModule&#45;&gt;SearchComponent  -->
<g id="edge11" class="edge">
<title>SearchModule&#45;&gt;SearchComponent </title>
<path fill="none" stroke="black" stroke-dasharray="5,2" d="M1032.28,-169C1012.3,-169 993.77,-169 993.77,-169 993.77,-169 993.77,-205.89 993.77,-205.89"/>
<polygon fill="black" stroke="black" points="990.27,-205.89 993.77,-215.89 997.27,-205.89 990.27,-205.89"/>
</g>
<!-- SearchRoutingModule -->
<g id="node12" class="node">
<title>SearchRoutingModule</title>
<polygon fill="#8dd3c7" stroke="black" points="1182.25,-122 1179.25,-126 1158.25,-126 1155.25,-122 1039.75,-122 1039.75,-86 1182.25,-86 1182.25,-122"/>
<text text-anchor="middle" x="1111" y="-99.8" font-family="Times,serif" font-size="14.00">SearchRoutingModule</text>
</g>
<!-- SearchRoutingModule&#45;&gt;SearchModule -->
<g id="edge10" class="edge">
<title>SearchRoutingModule&#45;&gt;SearchModule</title>
<path fill="none" stroke="black" d="M1084.72,-122.11C1084.72,-122.11 1084.72,-140.99 1084.72,-140.99"/>
<polygon fill="black" stroke="black" points="1081.22,-140.99 1084.72,-150.99 1088.22,-140.99 1081.22,-140.99"/>
</g>
</g>
</svg>
