<?xml version="1.0" encoding="UTF-8" standalone="no"?>
<!DOCTYPE svg PUBLIC "-//W3C//DTD SVG 1.1//EN"
 "http://www.w3.org/Graphics/SVG/1.1/DTD/svg11.dtd">
<!-- Generated by graphviz version 2.44.1 (20200629.0846)
 -->
<!-- Title: dependencies Pages: 1 -->
<svg width="706pt" height="284pt"
 viewBox="0.00 0.00 706.00 284.00" xmlns="http://www.w3.org/2000/svg" xmlns:xlink="http://www.w3.org/1999/xlink">
<g id="graph0" class="graph" transform="scale(1 1) rotate(0) translate(4 280)">
<title>dependencies</title>
<polygon fill="white" stroke="transparent" points="-4,4 -4,-280 702,-280 702,4 -4,4"/>
<text text-anchor="start" x="328.01" y="-42.4" font-family="sans-serif" font-weight="bold" font-size="14.00">Legend</text>
<polygon fill="#ffffb3" stroke="transparent" points="115,-10 115,-30 135,-30 135,-10 115,-10"/>
<text text-anchor="start" x="138.63" y="-15.4" font-family="sans-serif" font-size="14.00"> &#160;Declarations</text>
<polygon fill="#8dd3c7" stroke="transparent" points="228,-10 228,-30 248,-30 248,-10 228,-10"/>
<text text-anchor="start" x="251.73" y="-15.4" font-family="sans-serif" font-size="14.00"> &#160;Module</text>
<polygon fill="#80b1d3" stroke="transparent" points="314,-10 314,-30 334,-30 334,-10 314,-10"/>
<text text-anchor="start" x="337.78" y="-15.4" font-family="sans-serif" font-size="14.00"> &#160;Bootstrap</text>
<polygon fill="#fdb462" stroke="transparent" points="411,-10 411,-30 431,-30 431,-10 411,-10"/>
<text text-anchor="start" x="434.67" y="-15.4" font-family="sans-serif" font-size="14.00"> &#160;Providers</text>
<polygon fill="#fb8072" stroke="transparent" points="507,-10 507,-30 527,-30 527,-10 507,-10"/>
<text text-anchor="start" x="530.73" y="-15.4" font-family="sans-serif" font-size="14.00"> &#160;Exports</text>
<g id="clust1" class="cluster">
<title>cluster_AppModule</title>
<polygon fill="none" stroke="black" stroke-dasharray="1,5" points="8,-70 8,-268 690,-268 690,-70 8,-70"/>
</g>
<g id="clust2" class="cluster">
<title>cluster_AppModule_declarations</title>
<polygon fill="none" stroke="black" points="560,-78 560,-130 682,-130 682,-78 560,-78"/>
</g>
<g id="clust7" class="cluster">
<title>cluster_AppModule_providers</title>
<polygon fill="none" stroke="black" points="168,-78 168,-130 552,-130 552,-78 168,-78"/>
</g>
<g id="clust6" class="cluster">
<title>cluster_AppModule_bootstrap</title>
<polygon fill="none" stroke="black" points="300,-208 300,-260 424,-260 424,-208 300,-208"/>
</g>
<g id="clust4" class="cluster">
<title>cluster_AppModule_imports</title>
<polygon fill="none" stroke="black" points="16,-78 16,-130 160,-130 160,-78 16,-78"/>
</g>
<!-- AppComponent -->
<g id="node1" class="node">
<title>AppComponent</title>
<polygon fill="#ffffb3" stroke="black" points="673.94,-122 568.06,-122 568.06,-86 673.94,-86 673.94,-122"/>
<text text-anchor="middle" x="621" y="-99.8" font-family="Times,serif" font-size="14.00">AppComponent</text>
</g>
<!-- AppModule -->
<g id="node2" class="node">
<title>AppModule</title>
<polygon fill="#8dd3c7" stroke="black" points="403.66,-187 400.66,-191 379.66,-191 376.66,-187 320.34,-187 320.34,-151 403.66,-151 403.66,-187"/>
<text text-anchor="middle" x="362" y="-164.8" font-family="Times,serif" font-size="14.00">AppModule</text>
</g>
<!-- AppComponent&#45;&gt;AppModule -->
<g id="edge1" class="edge">
<title>AppComponent&#45;&gt;AppModule</title>
<path fill="none" stroke="black" d="M621,-122.11C621,-141.34 621,-169 621,-169 621,-169 413.9,-169 413.9,-169"/>
<polygon fill="black" stroke="black" points="413.9,-165.5 403.9,-169 413.9,-172.5 413.9,-165.5"/>
</g>
<!-- AppComponent  -->
<g id="node4" class="node">
<title>AppComponent </title>
<polygon fill="#80b1d3" stroke="black" points="416.44,-252 307.56,-252 307.56,-216 416.44,-216 416.44,-252"/>
<text text-anchor="middle" x="362" y="-229.8" font-family="Times,serif" font-size="14.00">AppComponent </text>
</g>
<!-- AppModule&#45;&gt;AppComponent  -->
<g id="edge3" class="edge">
<title>AppModule&#45;&gt;AppComponent </title>
<path fill="none" stroke="black" stroke-dasharray="1,5" d="M362,-187.11C362,-187.11 362,-205.99 362,-205.99"/>
<polygon fill="black" stroke="black" points="358.5,-205.99 362,-215.99 365.5,-205.99 358.5,-205.99"/>
</g>
<!-- AppRoutingModule -->
<g id="node3" class="node">
<title>AppRoutingModule</title>
<polygon fill="#8dd3c7" stroke="black" points="152.27,-122 149.27,-126 128.27,-126 125.27,-122 23.73,-122 23.73,-86 152.27,-86 152.27,-122"/>
<text text-anchor="middle" x="88" y="-99.8" font-family="Times,serif" font-size="14.00">AppRoutingModule</text>
</g>
<!-- AppRoutingModule&#45;&gt;AppModule -->
<g id="edge2" class="edge">
<title>AppRoutingModule&#45;&gt;AppModule</title>
<path fill="none" stroke="black" d="M88,-122.11C88,-141.34 88,-169 88,-169 88,-169 310.09,-169 310.09,-169"/>
<polygon fill="black" stroke="black" points="310.09,-172.5 320.09,-169 310.09,-165.5 310.09,-172.5"/>
</g>
<!-- RequestInterceptor -->
<g id="node5" class="node">
<title>RequestInterceptor</title>
<ellipse fill="#fdb462" stroke="black" cx="459" cy="-104" rx="84.51" ry="18"/>
<text text-anchor="middle" x="459" y="-99.8" font-family="Times,serif" font-size="14.00">RequestInterceptor</text>
</g>
<!-- RequestInterceptor&#45;&gt;AppModule -->
<g id="edge4" class="edge">
<title>RequestInterceptor&#45;&gt;AppModule</title>
<path fill="none" stroke="black" d="M389.16,-114.16C389.16,-114.16 389.16,-140.81 389.16,-140.81"/>
<polygon fill="black" stroke="black" points="385.66,-140.81 389.16,-150.81 392.66,-140.81 385.66,-140.81"/>
</g>
<!-- ResponseInterceptor -->
<g id="node6" class="node">
<title>ResponseInterceptor</title>
<ellipse fill="#fdb462" stroke="black" cx="266" cy="-104" rx="90.31" ry="18"/>
<text text-anchor="middle" x="266" y="-99.8" font-family="Times,serif" font-size="14.00">ResponseInterceptor</text>
</g>
<!-- ResponseInterceptor&#45;&gt;AppModule -->
<g id="edge5" class="edge">
<title>ResponseInterceptor&#45;&gt;AppModule</title>
<path fill="none" stroke="black" d="M338.29,-115.03C338.29,-115.03 338.29,-140.78 338.29,-140.78"/>
<polygon fill="black" stroke="black" points="334.79,-140.78 338.29,-150.78 341.79,-140.78 334.79,-140.78"/>
</g>
</g>
</svg>
