<?xml version="1.0" encoding="UTF-8" standalone="no"?>
<!DOCTYPE svg PUBLIC "-//W3C//DTD SVG 1.1//EN"
 "http://www.w3.org/Graphics/SVG/1.1/DTD/svg11.dtd">
<!-- Generated by graphviz version 2.44.1 (20200629.0846)
 -->
<!-- Title: dependencies Pages: 1 -->
<svg width="706pt" height="284pt"
 viewBox="0.00 0.00 706.00 284.00" xmlns="http://www.w3.org/2000/svg" xmlns:xlink="http://www.w3.org/1999/xlink">
<g id="graph0" class="graph" transform="scale(1 1) rotate(0) translate(4 280)">
<title>dependencies</title>
<polygon fill="white" stroke="transparent" points="-4,4 -4,-280 702,-280 702,4 -4,4"/>
<text text-anchor="start" x="328.01" y="-42.4" font-family="sans-serif" font-weight="bold" font-size="14.00">Legend</text>
<polygon fill="#ffffb3" stroke="transparent" points="115,-10 115,-30 135,-30 135,-10 115,-10"/>
<text text-anchor="start" x="138.63" y="-15.4" font-family="sans-serif" font-size="14.00"> &#160;Declarations</text>
<polygon fill="#8dd3c7" stroke="transparent" points="228,-10 228,-30 248,-30 248,-10 228,-10"/>
<text text-anchor="start" x="251.73" y="-15.4" font-family="sans-serif" font-size="14.00"> &#160;Module</text>
<polygon fill="#80b1d3" stroke="transparent" points="314,-10 314,-30 334,-30 334,-10 314,-10"/>
<text text-anchor="start" x="337.78" y="-15.4" font-family="sans-serif" font-size="14.00"> &#160;Bootstrap</text>
<polygon fill="#fdb462" stroke="transparent" points="411,-10 411,-30 431,-30 431,-10 411,-10"/>
<text text-anchor="start" x="434.67" y="-15.4" font-family="sans-serif" font-size="14.00"> &#160;Providers</text>
<polygon fill="#fb8072" stroke="transparent" points="507,-10 507,-30 527,-30 527,-10 507,-10"/>
<text text-anchor="start" x="530.73" y="-15.4" font-family="sans-serif" font-size="14.00"> &#160;Exports</text>
<g id="clust1" class="cluster">
<title>cluster_AppModule</title>
<polygon fill="none" stroke="black" stroke-dasharray="1,5" points="8,-70 8,-268 690,-268 690,-70 8,-70"/>
</g>
<g id="clust6" class="cluster">
<title>cluster_AppModule_bootstrap</title>
<polygon fill="none" stroke="black" points="331,-208 331,-260 455,-260 455,-208 331,-208"/>
</g>
<g id="clust2" class="cluster">
<title>cluster_AppModule_declarations</title>
<polygon fill="none" stroke="black" points="560,-78 560,-130 682,-130 682,-78 560,-78"/>
</g>
<g id="clust4" class="cluster">
<title>cluster_AppModule_imports</title>
<polygon fill="none" stroke="black" points="408,-78 408,-130 552,-130 552,-78 408,-78"/>
</g>
<g id="clust7" class="cluster">
<title>cluster_AppModule_providers</title>
<polygon fill="none" stroke="black" points="16,-78 16,-130 400,-130 400,-78 16,-78"/>
</g>
<!-- AppComponent -->
<g id="node1" class="node">
<title>AppComponent</title>
<polygon fill="#ffffb3" stroke="black" points="673.94,-122 568.06,-122 568.06,-86 673.94,-86 673.94,-122"/>
<text text-anchor="middle" x="621" y="-99.8" font-family="Times,serif" font-size="14.00">AppComponent</text>
</g>
<!-- AppModule -->
<g id="node2" class="node">
<title>AppModule</title>
<polygon fill="#8dd3c7" stroke="black" points="434.66,-187 431.66,-191 410.66,-191 407.66,-187 351.34,-187 351.34,-151 434.66,-151 434.66,-187"/>
<text text-anchor="middle" x="393" y="-164.8" font-family="Times,serif" font-size="14.00">AppModule</text>
</g>
<!-- AppComponent&#45;&gt;AppModule -->
<g id="edge1" class="edge">
<title>AppComponent&#45;&gt;AppModule</title>
<path fill="none" stroke="black" d="M621,-122.11C621,-141.34 621,-169 621,-169 621,-169 444.82,-169 444.82,-169"/>
<polygon fill="black" stroke="black" points="444.82,-165.5 434.82,-169 444.82,-172.5 444.82,-165.5"/>
</g>
<!-- AppComponent  -->
<g id="node4" class="node">
<title>AppComponent </title>
<polygon fill="#80b1d3" stroke="black" points="447.44,-252 338.56,-252 338.56,-216 447.44,-216 447.44,-252"/>
<text text-anchor="middle" x="393" y="-229.8" font-family="Times,serif" font-size="14.00">AppComponent </text>
</g>
<!-- AppModule&#45;&gt;AppComponent  -->
<g id="edge3" class="edge">
<title>AppModule&#45;&gt;AppComponent </title>
<path fill="none" stroke="black" stroke-dasharray="1,5" d="M393,-187.11C393,-187.11 393,-205.99 393,-205.99"/>
<polygon fill="black" stroke="black" points="389.5,-205.99 393,-215.99 396.5,-205.99 389.5,-205.99"/>
</g>
<!-- AppRoutingModule -->
<g id="node3" class="node">
<title>AppRoutingModule</title>
<polygon fill="#8dd3c7" stroke="black" points="544.27,-122 541.27,-126 520.27,-126 517.27,-122 415.73,-122 415.73,-86 544.27,-86 544.27,-122"/>
<text text-anchor="middle" x="480" y="-99.8" font-family="Times,serif" font-size="14.00">AppRoutingModule</text>
</g>
<!-- AppRoutingModule&#45;&gt;AppModule -->
<g id="edge2" class="edge">
<title>AppRoutingModule&#45;&gt;AppModule</title>
<path fill="none" stroke="black" d="M425.22,-122.11C425.22,-122.11 425.22,-140.99 425.22,-140.99"/>
<polygon fill="black" stroke="black" points="421.72,-140.99 425.22,-150.99 428.72,-140.99 421.72,-140.99"/>
</g>
<!-- RequestInterceptor -->
<g id="node5" class="node">
<title>RequestInterceptor</title>
<ellipse fill="#fdb462" stroke="black" cx="307" cy="-104" rx="84.51" ry="18"/>
<text text-anchor="middle" x="307" y="-99.8" font-family="Times,serif" font-size="14.00">RequestInterceptor</text>
</g>
<!-- RequestInterceptor&#45;&gt;AppModule -->
<g id="edge4" class="edge">
<title>RequestInterceptor&#45;&gt;AppModule</title>
<path fill="none" stroke="black" d="M371.34,-115.92C371.34,-115.92 371.34,-140.77 371.34,-140.77"/>
<polygon fill="black" stroke="black" points="367.84,-140.77 371.34,-150.77 374.84,-140.77 367.84,-140.77"/>
</g>
<!-- ResponseInterceptor -->
<g id="node6" class="node">
<title>ResponseInterceptor</title>
<ellipse fill="#fdb462" stroke="black" cx="114" cy="-104" rx="90.31" ry="18"/>
<text text-anchor="middle" x="114" y="-99.8" font-family="Times,serif" font-size="14.00">ResponseInterceptor</text>
</g>
<!-- ResponseInterceptor&#45;&gt;AppModule -->
<g id="edge5" class="edge">
<title>ResponseInterceptor&#45;&gt;AppModule</title>
<path fill="none" stroke="black" d="M114,-122.11C114,-141.34 114,-169 114,-169 114,-169 341.23,-169 341.23,-169"/>
<polygon fill="black" stroke="black" points="341.23,-172.5 351.23,-169 341.23,-165.5 341.23,-172.5"/>
</g>
</g>
</svg>
