<?xml version="1.0" encoding="UTF-8" standalone="no"?>
<!DOCTYPE svg PUBLIC "-//W3C//DTD SVG 1.1//EN"
 "http://www.w3.org/Graphics/SVG/1.1/DTD/svg11.dtd">
<!-- Generated by graphviz version 2.44.1 (20200629.0846)
 -->
<!-- Title: dependencies Pages: 1 -->
<svg width="706pt" height="284pt"
 viewBox="0.00 0.00 706.00 284.00" xmlns="http://www.w3.org/2000/svg" xmlns:xlink="http://www.w3.org/1999/xlink">
<g id="graph0" class="graph" transform="scale(1 1) rotate(0) translate(4 280)">
<title>dependencies</title>
<polygon fill="white" stroke="transparent" points="-4,4 -4,-280 702,-280 702,4 -4,4"/>
<text text-anchor="start" x="328.01" y="-42.4" font-family="sans-serif" font-weight="bold" font-size="14.00">Legend</text>
<polygon fill="#ffffb3" stroke="transparent" points="115,-10 115,-30 135,-30 135,-10 115,-10"/>
<text text-anchor="start" x="138.63" y="-15.4" font-family="sans-serif" font-size="14.00"> &#160;Declarations</text>
<polygon fill="#8dd3c7" stroke="transparent" points="228,-10 228,-30 248,-30 248,-10 228,-10"/>
<text text-anchor="start" x="251.73" y="-15.4" font-family="sans-serif" font-size="14.00"> &#160;Module</text>
<polygon fill="#80b1d3" stroke="transparent" points="314,-10 314,-30 334,-30 334,-10 314,-10"/>
<text text-anchor="start" x="337.78" y="-15.4" font-family="sans-serif" font-size="14.00"> &#160;Bootstrap</text>
<polygon fill="#fdb462" stroke="transparent" points="411,-10 411,-30 431,-30 431,-10 411,-10"/>
<text text-anchor="start" x="434.67" y="-15.4" font-family="sans-serif" font-size="14.00"> &#160;Providers</text>
<polygon fill="#fb8072" stroke="transparent" points="507,-10 507,-30 527,-30 527,-10 507,-10"/>
<text text-anchor="start" x="530.73" y="-15.4" font-family="sans-serif" font-size="14.00"> &#160;Exports</text>
<g id="clust1" class="cluster">
<title>cluster_AppModule</title>
<polygon fill="none" stroke="black" stroke-dasharray="1,5" points="8,-70 8,-268 690,-268 690,-70 8,-70"/>
</g>
<g id="clust7" class="cluster">
<title>cluster_AppModule_providers</title>
<polygon fill="none" stroke="black" points="298,-78 298,-130 682,-130 682,-78 298,-78"/>
</g>
<g id="clust6" class="cluster">
<title>cluster_AppModule_bootstrap</title>
<polygon fill="none" stroke="black" points="250,-208 250,-260 374,-260 374,-208 250,-208"/>
</g>
<g id="clust2" class="cluster">
<title>cluster_AppModule_declarations</title>
<polygon fill="none" stroke="black" points="168,-78 168,-130 290,-130 290,-78 168,-78"/>
</g>
<g id="clust4" class="cluster">
<title>cluster_AppModule_imports</title>
<polygon fill="none" stroke="black" points="16,-78 16,-130 160,-130 160,-78 16,-78"/>
</g>
<!-- AppComponent -->
<g id="node1" class="node">
<title>AppComponent</title>
<polygon fill="#ffffb3" stroke="black" points="281.94,-122 176.06,-122 176.06,-86 281.94,-86 281.94,-122"/>
<text text-anchor="middle" x="229" y="-99.8" font-family="Times,serif" font-size="14.00">AppComponent</text>
</g>
<!-- AppModule -->
<g id="node2" class="node">
<title>AppModule</title>
<polygon fill="#8dd3c7" stroke="black" points="353.66,-187 350.66,-191 329.66,-191 326.66,-187 270.34,-187 270.34,-151 353.66,-151 353.66,-187"/>
<text text-anchor="middle" x="312" y="-164.8" font-family="Times,serif" font-size="14.00">AppModule</text>
</g>
<!-- AppComponent&#45;&gt;AppModule -->
<g id="edge1" class="edge">
<title>AppComponent&#45;&gt;AppModule</title>
<path fill="none" stroke="black" d="M275.95,-122.11C275.95,-122.11 275.95,-140.99 275.95,-140.99"/>
<polygon fill="black" stroke="black" points="272.45,-140.99 275.95,-150.99 279.45,-140.99 272.45,-140.99"/>
</g>
<!-- AppComponent  -->
<g id="node4" class="node">
<title>AppComponent </title>
<polygon fill="#80b1d3" stroke="black" points="366.44,-252 257.56,-252 257.56,-216 366.44,-216 366.44,-252"/>
<text text-anchor="middle" x="312" y="-229.8" font-family="Times,serif" font-size="14.00">AppComponent </text>
</g>
<!-- AppModule&#45;&gt;AppComponent  -->
<g id="edge3" class="edge">
<title>AppModule&#45;&gt;AppComponent </title>
<path fill="none" stroke="black" stroke-dasharray="1,5" d="M312,-187.11C312,-187.11 312,-205.99 312,-205.99"/>
<polygon fill="black" stroke="black" points="308.5,-205.99 312,-215.99 315.5,-205.99 308.5,-205.99"/>
</g>
<!-- AppRoutingModule -->
<g id="node3" class="node">
<title>AppRoutingModule</title>
<polygon fill="#8dd3c7" stroke="black" points="152.27,-122 149.27,-126 128.27,-126 125.27,-122 23.73,-122 23.73,-86 152.27,-86 152.27,-122"/>
<text text-anchor="middle" x="88" y="-99.8" font-family="Times,serif" font-size="14.00">AppRoutingModule</text>
</g>
<!-- AppRoutingModule&#45;&gt;AppModule -->
<g id="edge2" class="edge">
<title>AppRoutingModule&#45;&gt;AppModule</title>
<path fill="none" stroke="black" d="M88,-122.11C88,-141.34 88,-169 88,-169 88,-169 260.13,-169 260.13,-169"/>
<polygon fill="black" stroke="black" points="260.13,-172.5 270.13,-169 260.13,-165.5 260.13,-172.5"/>
</g>
<!-- RequestInterceptor -->
<g id="node5" class="node">
<title>RequestInterceptor</title>
<ellipse fill="#fdb462" stroke="black" cx="589" cy="-104" rx="84.51" ry="18"/>
<text text-anchor="middle" x="589" y="-99.8" font-family="Times,serif" font-size="14.00">RequestInterceptor</text>
</g>
<!-- RequestInterceptor&#45;&gt;AppModule -->
<g id="edge4" class="edge">
<title>RequestInterceptor&#45;&gt;AppModule</title>
<path fill="none" stroke="black" d="M589,-122.11C589,-141.34 589,-169 589,-169 589,-169 363.77,-169 363.77,-169"/>
<polygon fill="black" stroke="black" points="363.77,-165.5 353.77,-169 363.77,-172.5 363.77,-165.5"/>
</g>
<!-- ResponseInterceptor -->
<g id="node6" class="node">
<title>ResponseInterceptor</title>
<ellipse fill="#fdb462" stroke="black" cx="396" cy="-104" rx="90.31" ry="18"/>
<text text-anchor="middle" x="396" y="-99.8" font-family="Times,serif" font-size="14.00">ResponseInterceptor</text>
</g>
<!-- ResponseInterceptor&#45;&gt;AppModule -->
<g id="edge5" class="edge">
<title>ResponseInterceptor&#45;&gt;AppModule</title>
<path fill="none" stroke="black" d="M329.71,-116.53C329.71,-116.53 329.71,-140.85 329.71,-140.85"/>
<polygon fill="black" stroke="black" points="326.21,-140.85 329.71,-150.85 333.21,-140.85 326.21,-140.85"/>
</g>
</g>
</svg>
