<?xml version="1.0" encoding="UTF-8" standalone="no"?>
<!DOCTYPE svg PUBLIC "-//W3C//DTD SVG 1.1//EN"
 "http://www.w3.org/Graphics/SVG/1.1/DTD/svg11.dtd">
<!-- Generated by graphviz version 2.44.1 (20200629.0846)
 -->
<!-- Title: dependencies Pages: 1 -->
<svg width="846pt" height="284pt"
 viewBox="0.00 0.00 846.00 284.00" xmlns="http://www.w3.org/2000/svg" xmlns:xlink="http://www.w3.org/1999/xlink">
<g id="graph0" class="graph" transform="scale(1 1) rotate(0) translate(4 280)">
<title>dependencies</title>
<polygon fill="white" stroke="transparent" points="-4,4 -4,-280 842,-280 842,4 -4,4"/>
<text text-anchor="start" x="398.01" y="-42.4" font-family="sans-serif" font-weight="bold" font-size="14.00">Legend</text>
<polygon fill="#ffffb3" stroke="transparent" points="185,-10 185,-30 205,-30 205,-10 185,-10"/>
<text text-anchor="start" x="208.63" y="-15.4" font-family="sans-serif" font-size="14.00"> &#160;Declarations</text>
<polygon fill="#8dd3c7" stroke="transparent" points="298,-10 298,-30 318,-30 318,-10 298,-10"/>
<text text-anchor="start" x="321.73" y="-15.4" font-family="sans-serif" font-size="14.00"> &#160;Module</text>
<polygon fill="#80b1d3" stroke="transparent" points="384,-10 384,-30 404,-30 404,-10 384,-10"/>
<text text-anchor="start" x="407.78" y="-15.4" font-family="sans-serif" font-size="14.00"> &#160;Bootstrap</text>
<polygon fill="#fdb462" stroke="transparent" points="481,-10 481,-30 501,-30 501,-10 481,-10"/>
<text text-anchor="start" x="504.67" y="-15.4" font-family="sans-serif" font-size="14.00"> &#160;Providers</text>
<polygon fill="#fb8072" stroke="transparent" points="577,-10 577,-30 597,-30 597,-10 577,-10"/>
<text text-anchor="start" x="600.73" y="-15.4" font-family="sans-serif" font-size="14.00"> &#160;Exports</text>
<g id="clust1" class="cluster">
<title>cluster_AppModule</title>
<polygon fill="none" stroke="black" stroke-dasharray="1,5" points="8,-70 8,-268 830,-268 830,-70 8,-70"/>
</g>
<g id="clust8" class="cluster">
<title>cluster_AppModule_providers</title>
<polygon fill="none" stroke="black" points="438,-78 438,-130 822,-130 822,-78 438,-78"/>
</g>
<g id="clust2" class="cluster">
<title>cluster_AppModule_declarations</title>
<polygon fill="none" stroke="black" points="168,-78 168,-130 430,-130 430,-78 168,-78"/>
</g>
<g id="clust5" class="cluster">
<title>cluster_AppModule_imports</title>
<polygon fill="none" stroke="black" points="16,-78 16,-130 160,-130 160,-78 16,-78"/>
</g>
<g id="clust7" class="cluster">
<title>cluster_AppModule_bootstrap</title>
<polygon fill="none" stroke="black" points="307,-208 307,-260 431,-260 431,-208 307,-208"/>
</g>
<!-- AppComponent -->
<g id="node1" class="node">
<title>AppComponent</title>
<polygon fill="#ffffb3" stroke="black" points="421.94,-122 316.06,-122 316.06,-86 421.94,-86 421.94,-122"/>
<text text-anchor="middle" x="369" y="-99.8" font-family="Times,serif" font-size="14.00">AppComponent</text>
</g>
<!-- AppModule -->
<g id="node3" class="node">
<title>AppModule</title>
<polygon fill="#8dd3c7" stroke="black" points="410.66,-187 407.66,-191 386.66,-191 383.66,-187 327.34,-187 327.34,-151 410.66,-151 410.66,-187"/>
<text text-anchor="middle" x="369" y="-164.8" font-family="Times,serif" font-size="14.00">AppModule</text>
</g>
<!-- AppComponent&#45;&gt;AppModule -->
<g id="edge1" class="edge">
<title>AppComponent&#45;&gt;AppModule</title>
<path fill="none" stroke="black" d="M369,-122.11C369,-122.11 369,-140.99 369,-140.99"/>
<polygon fill="black" stroke="black" points="365.5,-140.99 369,-150.99 372.5,-140.99 365.5,-140.99"/>
</g>
<!-- HeaderComponent -->
<g id="node2" class="node">
<title>HeaderComponent</title>
<polygon fill="#ffffb3" stroke="black" points="297.74,-122 176.26,-122 176.26,-86 297.74,-86 297.74,-122"/>
<text text-anchor="middle" x="237" y="-99.8" font-family="Times,serif" font-size="14.00">HeaderComponent</text>
</g>
<!-- HeaderComponent&#45;&gt;AppModule -->
<g id="edge2" class="edge">
<title>HeaderComponent&#45;&gt;AppModule</title>
<path fill="none" stroke="black" d="M237,-122.02C237,-139.37 237,-163 237,-163 237,-163 317.23,-163 317.23,-163"/>
<polygon fill="black" stroke="black" points="317.23,-166.5 327.23,-163 317.23,-159.5 317.23,-166.5"/>
</g>
<!-- AppComponent  -->
<g id="node5" class="node">
<title>AppComponent </title>
<polygon fill="#80b1d3" stroke="black" points="423.44,-252 314.56,-252 314.56,-216 423.44,-216 423.44,-252"/>
<text text-anchor="middle" x="369" y="-229.8" font-family="Times,serif" font-size="14.00">AppComponent </text>
</g>
<!-- AppModule&#45;&gt;AppComponent  -->
<g id="edge4" class="edge">
<title>AppModule&#45;&gt;AppComponent </title>
<path fill="none" stroke="black" stroke-dasharray="1,5" d="M369,-187.11C369,-187.11 369,-205.99 369,-205.99"/>
<polygon fill="black" stroke="black" points="365.5,-205.99 369,-215.99 372.5,-205.99 365.5,-205.99"/>
</g>
<!-- AppRoutingModule -->
<g id="node4" class="node">
<title>AppRoutingModule</title>
<polygon fill="#8dd3c7" stroke="black" points="152.27,-122 149.27,-126 128.27,-126 125.27,-122 23.73,-122 23.73,-86 152.27,-86 152.27,-122"/>
<text text-anchor="middle" x="88" y="-99.8" font-family="Times,serif" font-size="14.00">AppRoutingModule</text>
</g>
<!-- AppRoutingModule&#45;&gt;AppModule -->
<g id="edge3" class="edge">
<title>AppRoutingModule&#45;&gt;AppModule</title>
<path fill="none" stroke="black" d="M88,-122.28C88,-143.32 88,-175 88,-175 88,-175 317.23,-175 317.23,-175"/>
<polygon fill="black" stroke="black" points="317.23,-178.5 327.23,-175 317.23,-171.5 317.23,-178.5"/>
</g>
<!-- RequestInterceptor -->
<g id="node6" class="node">
<title>RequestInterceptor</title>
<ellipse fill="#fdb462" stroke="black" cx="729" cy="-104" rx="84.51" ry="18"/>
<text text-anchor="middle" x="729" y="-99.8" font-family="Times,serif" font-size="14.00">RequestInterceptor</text>
</g>
<!-- RequestInterceptor&#45;&gt;AppModule -->
<g id="edge5" class="edge">
<title>RequestInterceptor&#45;&gt;AppModule</title>
<path fill="none" stroke="black" d="M729,-122.28C729,-143.32 729,-175 729,-175 729,-175 421,-175 421,-175"/>
<polygon fill="black" stroke="black" points="421,-171.5 411,-175 421,-178.5 421,-171.5"/>
</g>
<!-- ResponseInterceptor -->
<g id="node7" class="node">
<title>ResponseInterceptor</title>
<ellipse fill="#fdb462" stroke="black" cx="536" cy="-104" rx="90.31" ry="18"/>
<text text-anchor="middle" x="536" y="-99.8" font-family="Times,serif" font-size="14.00">ResponseInterceptor</text>
</g>
<!-- ResponseInterceptor&#45;&gt;AppModule -->
<g id="edge6" class="edge">
<title>ResponseInterceptor&#45;&gt;AppModule</title>
<path fill="none" stroke="black" d="M536,-122.02C536,-139.37 536,-163 536,-163 536,-163 420.71,-163 420.71,-163"/>
<polygon fill="black" stroke="black" points="420.71,-159.5 410.71,-163 420.71,-166.5 420.71,-159.5"/>
</g>
</g>
</svg>
