<?xml version="1.0" encoding="UTF-8" standalone="no"?>
<!DOCTYPE svg PUBLIC "-//W3C//DTD SVG 1.1//EN"
 "http://www.w3.org/Graphics/SVG/1.1/DTD/svg11.dtd">
<!-- Generated by graphviz version 2.44.1 (20200629.0846)
 -->
<!-- Title: dependencies Pages: 1 -->
<svg width="706pt" height="284pt"
 viewBox="0.00 0.00 706.00 284.00" xmlns="http://www.w3.org/2000/svg" xmlns:xlink="http://www.w3.org/1999/xlink">
<g id="graph0" class="graph" transform="scale(1 1) rotate(0) translate(4 280)">
<title>dependencies</title>
<polygon fill="white" stroke="transparent" points="-4,4 -4,-280 702,-280 702,4 -4,4"/>
<text text-anchor="start" x="328.01" y="-42.4" font-family="sans-serif" font-weight="bold" font-size="14.00">Legend</text>
<polygon fill="#ffffb3" stroke="transparent" points="115,-10 115,-30 135,-30 135,-10 115,-10"/>
<text text-anchor="start" x="138.63" y="-15.4" font-family="sans-serif" font-size="14.00"> &#160;Declarations</text>
<polygon fill="#8dd3c7" stroke="transparent" points="228,-10 228,-30 248,-30 248,-10 228,-10"/>
<text text-anchor="start" x="251.73" y="-15.4" font-family="sans-serif" font-size="14.00"> &#160;Module</text>
<polygon fill="#80b1d3" stroke="transparent" points="314,-10 314,-30 334,-30 334,-10 314,-10"/>
<text text-anchor="start" x="337.78" y="-15.4" font-family="sans-serif" font-size="14.00"> &#160;Bootstrap</text>
<polygon fill="#fdb462" stroke="transparent" points="411,-10 411,-30 431,-30 431,-10 411,-10"/>
<text text-anchor="start" x="434.67" y="-15.4" font-family="sans-serif" font-size="14.00"> &#160;Providers</text>
<polygon fill="#fb8072" stroke="transparent" points="507,-10 507,-30 527,-30 527,-10 507,-10"/>
<text text-anchor="start" x="530.73" y="-15.4" font-family="sans-serif" font-size="14.00"> &#160;Exports</text>
<g id="clust1" class="cluster">
<title>cluster_AppModule</title>
<polygon fill="none" stroke="black" stroke-dasharray="1,5" points="8,-70 8,-268 690,-268 690,-70 8,-70"/>
</g>
<g id="clust4" class="cluster">
<title>cluster_AppModule_imports</title>
<polygon fill="none" stroke="black" points="538,-78 538,-130 682,-130 682,-78 538,-78"/>
</g>
<g id="clust6" class="cluster">
<title>cluster_AppModule_bootstrap</title>
<polygon fill="none" stroke="black" points="326,-208 326,-260 450,-260 450,-208 326,-208"/>
</g>
<g id="clust2" class="cluster">
<title>cluster_AppModule_declarations</title>
<polygon fill="none" stroke="black" points="408,-78 408,-130 530,-130 530,-78 408,-78"/>
</g>
<g id="clust7" class="cluster">
<title>cluster_AppModule_providers</title>
<polygon fill="none" stroke="black" points="16,-78 16,-130 400,-130 400,-78 16,-78"/>
</g>
<!-- AppComponent -->
<g id="node1" class="node">
<title>AppComponent</title>
<polygon fill="#ffffb3" stroke="black" points="521.94,-122 416.06,-122 416.06,-86 521.94,-86 521.94,-122"/>
<text text-anchor="middle" x="469" y="-99.8" font-family="Times,serif" font-size="14.00">AppComponent</text>
</g>
<!-- AppModule -->
<g id="node2" class="node">
<title>AppModule</title>
<polygon fill="#8dd3c7" stroke="black" points="429.66,-187 426.66,-191 405.66,-191 402.66,-187 346.34,-187 346.34,-151 429.66,-151 429.66,-187"/>
<text text-anchor="middle" x="388" y="-164.8" font-family="Times,serif" font-size="14.00">AppModule</text>
</g>
<!-- AppComponent&#45;&gt;AppModule -->
<g id="edge1" class="edge">
<title>AppComponent&#45;&gt;AppModule</title>
<path fill="none" stroke="black" d="M423.05,-122.11C423.05,-122.11 423.05,-140.99 423.05,-140.99"/>
<polygon fill="black" stroke="black" points="419.55,-140.99 423.05,-150.99 426.55,-140.99 419.55,-140.99"/>
</g>
<!-- AppComponent  -->
<g id="node4" class="node">
<title>AppComponent </title>
<polygon fill="#80b1d3" stroke="black" points="442.44,-252 333.56,-252 333.56,-216 442.44,-216 442.44,-252"/>
<text text-anchor="middle" x="388" y="-229.8" font-family="Times,serif" font-size="14.00">AppComponent </text>
</g>
<!-- AppModule&#45;&gt;AppComponent  -->
<g id="edge3" class="edge">
<title>AppModule&#45;&gt;AppComponent </title>
<path fill="none" stroke="black" stroke-dasharray="1,5" d="M388,-187.11C388,-187.11 388,-205.99 388,-205.99"/>
<polygon fill="black" stroke="black" points="384.5,-205.99 388,-215.99 391.5,-205.99 384.5,-205.99"/>
</g>
<!-- AppRoutingModule -->
<g id="node3" class="node">
<title>AppRoutingModule</title>
<polygon fill="#8dd3c7" stroke="black" points="674.27,-122 671.27,-126 650.27,-126 647.27,-122 545.73,-122 545.73,-86 674.27,-86 674.27,-122"/>
<text text-anchor="middle" x="610" y="-99.8" font-family="Times,serif" font-size="14.00">AppRoutingModule</text>
</g>
<!-- AppRoutingModule&#45;&gt;AppModule -->
<g id="edge2" class="edge">
<title>AppRoutingModule&#45;&gt;AppModule</title>
<path fill="none" stroke="black" d="M610,-122.11C610,-141.34 610,-169 610,-169 610,-169 439.76,-169 439.76,-169"/>
<polygon fill="black" stroke="black" points="439.76,-165.5 429.76,-169 439.76,-172.5 439.76,-165.5"/>
</g>
<!-- RequestInterceptor -->
<g id="node5" class="node">
<title>RequestInterceptor</title>
<ellipse fill="#fdb462" stroke="black" cx="307" cy="-104" rx="84.51" ry="18"/>
<text text-anchor="middle" x="307" y="-99.8" font-family="Times,serif" font-size="14.00">RequestInterceptor</text>
</g>
<!-- RequestInterceptor&#45;&gt;AppModule -->
<g id="edge4" class="edge">
<title>RequestInterceptor&#45;&gt;AppModule</title>
<path fill="none" stroke="black" d="M368.84,-116.53C368.84,-116.53 368.84,-140.85 368.84,-140.85"/>
<polygon fill="black" stroke="black" points="365.34,-140.85 368.84,-150.85 372.34,-140.85 365.34,-140.85"/>
</g>
<!-- ResponseInterceptor -->
<g id="node6" class="node">
<title>ResponseInterceptor</title>
<ellipse fill="#fdb462" stroke="black" cx="114" cy="-104" rx="90.31" ry="18"/>
<text text-anchor="middle" x="114" y="-99.8" font-family="Times,serif" font-size="14.00">ResponseInterceptor</text>
</g>
<!-- ResponseInterceptor&#45;&gt;AppModule -->
<g id="edge5" class="edge">
<title>ResponseInterceptor&#45;&gt;AppModule</title>
<path fill="none" stroke="black" d="M114,-122.11C114,-141.34 114,-169 114,-169 114,-169 336.09,-169 336.09,-169"/>
<polygon fill="black" stroke="black" points="336.09,-172.5 346.09,-169 336.09,-165.5 336.09,-172.5"/>
</g>
</g>
</svg>
